P2
3 3 65535
 0  0  0  0  0  1  1  1  1 