<?xml version="1.0" encoding="UTF-8" standalone="no"?>
<!-- Created with Inkscape (http://www.inkscape.org/) -->
<svg
   xmlns:dc="http://purl.org/dc/elements/1.1/"
   xmlns:cc="http://web.resource.org/cc/"
   xmlns:rdf="http://www.w3.org/1999/02/22-rdf-syntax-ns#"
   xmlns:svg="http://www.w3.org/2000/svg"
   xmlns="http://www.w3.org/2000/svg"
   xmlns:sodipodi="http://sodipodi.sourceforge.net/DTD/sodipodi-0.dtd"
   xmlns:inkscape="http://www.inkscape.org/namespaces/inkscape"
   width="744.09448819"
   height="1052.3622047"
   id="svg2"
   sodipodi:version="0.32"
   inkscape:version="0.45"
   sodipodi:docbase="/home/alex/projects/devel/b16analysis"
   sodipodi:docname="logo.svg"
   inkscape:output_extension="org.inkscape.output.svg.inkscape"
   sodipodi:modified="TRUE">
  <defs
     id="defs4" />
  <sodipodi:namedview
     id="base"
     pagecolor="#ffffff"
     bordercolor="#666666"
     borderopacity="1.0"
     gridtolerance="10000"
     guidetolerance="10"
     objecttolerance="10"
     inkscape:pageopacity="0.0"
     inkscape:pageshadow="2"
     inkscape:zoom="2.8"
     inkscape:cx="337.26101"
     inkscape:cy="746.58697"
     inkscape:document-units="px"
     inkscape:current-layer="layer1"
     inkscape:window-width="1162"
     inkscape:window-height="776"
     inkscape:window-x="0"
     inkscape:window-y="21" />
  <metadata
     id="metadata7">
    <rdf:RDF>
      <cc:Work
         rdf:about="">
        <dc:format>image/svg+xml</dc:format>
        <dc:type
           rdf:resource="http://purl.org/dc/dcmitype/StillImage" />
      </cc:Work>
    </rdf:RDF>
  </metadata>
  <g
     inkscape:label="Layer 1"
     inkscape:groupmode="layer"
     id="layer1">
    <g
       id="g3142"
       transform="translate(4.5966199e-2,-2.822962)"
       inkscape:export-filename="/home/alex/projects/devel/b16analysis/icon.png"
       inkscape:export-xdpi="72"
       inkscape:export-ydpi="72">
      <path
         id="path1874"
         d="M 228.29447,260.90766 L 228.29447,326.0625"
         style="fill:none;fill-rule:evenodd;stroke:#fb0000;stroke-width:6;stroke-linecap:round;stroke-linejoin:miter;stroke-miterlimit:4;stroke-dasharray:none;stroke-opacity:1" />
      <path
         sodipodi:nodetypes="cc"
         id="path1876"
         d="M 195.71705,293.48508 L 246.22468,293.48508"
         style="fill:none;fill-rule:evenodd;stroke:#fb0000;stroke-width:6;stroke-linecap:round;stroke-linejoin:miter;stroke-miterlimit:4;stroke-dasharray:none;stroke-opacity:1" />
      <path
         id="path1878"
         d="M 251.33018,270.44937 L 205.25876,316.52079"
         style="fill:none;fill-rule:evenodd;stroke:#fb0000;stroke-width:6;stroke-linecap:round;stroke-linejoin:miter;stroke-miterlimit:4;stroke-dasharray:none;stroke-opacity:1" />
      <path
         id="path1880"
         d="M 205.25876,270.44937 L 251.33018,316.52079"
         style="fill:none;fill-rule:evenodd;stroke:#fb0000;stroke-width:6;stroke-linecap:round;stroke-linejoin:miter;stroke-miterlimit:4;stroke-dasharray:none;stroke-opacity:1" />
      <path
         sodipodi:nodetypes="cc"
         id="path2772"
         d="M 254.81098,293.48508 L 347.23994,293.48508"
         style="fill:none;fill-rule:evenodd;stroke:#fb0000;stroke-width:4;stroke-linecap:round;stroke-linejoin:miter;stroke-miterlimit:4;stroke-dasharray:4, 8;stroke-dashoffset:0;stroke-opacity:1" />
      <path
         sodipodi:nodetypes="cccccc"
         d="M 335.87464,321.84725 L 335.87464,304.32091 L 347.74603,297.46696 L 347.74603,289.32473 L 335.87464,282.47078 L 335.87464,273.8167 L 336.12826,273.53457 L 350.77547,269.7465 L 350.77547,333.89118 L 335.87464,321.84725 z "
         style="fill:#00005b;fill-opacity:1;fill-rule:evenodd;stroke:none;stroke-width:0.78864509px;stroke-linecap:butt;stroke-linejoin:miter;stroke-opacity:1"
         id="path2774" />
      <path
         transform="matrix(1.846131,0,0,1,-330.8851,11.86929)"
         sodipodi:open="true"
         sodipodi:end="7.0685835"
         sodipodi:start="5.5114477"
         d="M 369.19312,274.25716 A 7.6392784,10.732871 0 0 1 369.11983,289.33135"
         sodipodi:ry="10.732871"
         sodipodi:rx="7.6392784"
         sodipodi:cy="281.74207"
         sodipodi:cx="363.71805"
         id="path2806"
         style="fill:#00005b;fill-opacity:1;stroke:none;stroke-width:4;stroke-linecap:round;stroke-linejoin:miter;stroke-miterlimit:4;stroke-dasharray:4, 8;stroke-dashoffset:0;stroke-opacity:1"
         sodipodi:type="arc" />
    </g>
    <rect
       style="fill:none;fill-opacity:1;stroke:#000000;stroke-width:0.90441632;stroke-linecap:round;stroke-linejoin:bevel;stroke-miterlimit:4;stroke-dasharray:none;stroke-dashoffset:0;stroke-opacity:1"
       id="rect2164"
       width="201.16701"
       height="90.809868"
       x="173.16647"
       y="247.67152"
       inkscape:export-filename="/home/alex/projects/devel/b16analysis/icon.png"
       inkscape:export-xdpi="72"
       inkscape:export-ydpi="72" />
    <path
       style="font-size:44.76019669px;font-style:normal;font-variant:normal;font-weight:normal;font-stretch:normal;text-align:start;line-height:125%;writing-mode:lr-tb;text-anchor:start;fill:none;fill-opacity:1;stroke:#000000;stroke-width:1px;stroke-linecap:butt;stroke-linejoin:miter;stroke-opacity:1;font-family:Bitstream Vera Sans"
       d="M 192.45358,347.85945 C 192.9907,347.85945 193.52782,347.85945 194.02019,347.85945 C 196.75056,347.85945 199.12285,347.72516 201.3161,346.1138 C 203.15126,344.72623 204.18075,342.66726 204.18075,340.38449 C 204.18075,337.25128 202.70366,335.23707 199.52569,334.11807 C 201.49514,332.99906 202.47986,331.25341 202.47986,328.97064 C 202.47986,324.49463 199.30188,321.94329 192.9907,321.94329 L 182.78538,321.94329 C 181.80065,321.94329 181.26353,322.48042 181.26353,323.5099 C 181.26353,324.94222 182.02446,325.07651 183.90438,325.07651 L 184.62054,325.07651 L 184.62054,344.77099 L 183.85962,344.77099 C 181.93494,344.77099 181.12925,344.81575 181.12925,346.29284 C 181.12925,347.32232 181.62161,347.85945 182.6511,347.85945 L 192.45358,347.85945 M 188.06708,333.13334 L 188.06708,325.07651 L 193.48306,325.07651 C 196.9296,325.07651 198.72001,326.55359 198.72001,329.10492 C 198.72001,331.88005 196.70579,333.13334 192.63262,333.13334 L 188.06708,333.13334 M 188.06708,344.77099 L 188.06708,335.81895 L 193.12498,335.81895 C 197.91432,335.81895 200.37613,336.71416 200.37613,340.29497 C 200.37613,343.78626 197.91432,344.77099 192.90118,344.77099 L 188.06708,344.77099 M 214.41125,324.4051 L 218.52919,323.42038 L 218.52919,344.77099 L 214.90362,344.77099 C 212.84465,344.77099 211.90468,344.86051 211.90468,346.29284 C 211.90468,347.32232 212.48657,347.85945 213.65033,347.85945 L 226.72031,347.85945 C 227.88407,347.85945 228.46596,347.32232 228.46596,346.29284 C 228.46596,344.86051 227.52599,344.77099 225.46702,344.77099 L 221.97573,344.77099 L 221.97573,321.13761 C 221.97573,320.24241 221.61764,319.70528 221.08052,319.70528 C 220.81196,319.70528 220.49864,319.75004 220.14056,319.83956 L 213.65033,321.58521 C 212.71037,321.85377 212.218,322.39089 212.218,323.10706 C 212.218,323.91274 212.79989,324.49462 213.73985,324.49462 C 213.96365,324.49462 214.18745,324.44986 214.41125,324.4051 M 241.38207,333.53618 C 242.14299,327.35928 245.18669,323.55466 249.70747,322.70422 C 252.79592,322.12233 255.03393,323.10706 255.03393,321.04809 C 255.03393,319.7948 254.09396,319.571 251.54263,319.571 C 243.21725,319.571 237.62221,326.06124 237.62221,336.04275 C 237.62221,343.7415 241.42684,348.57561 247.11137,348.57561 C 251.99023,348.57561 255.43677,344.77099 255.43677,339.48929 C 255.43677,334.29711 251.63215,330.49249 247.15613,330.49249 C 244.87337,330.49249 242.94867,331.52198 241.38207,333.53618 M 241.87443,339.35501 C 241.87443,335.998 243.97816,333.67046 246.75329,333.67046 C 249.61794,333.67046 251.72168,336.08752 251.72168,339.66833 C 251.72168,343.20438 249.6627,345.4424 246.93233,345.4424 C 244.06768,345.4424 241.87443,343.0701 241.87443,339.35501"
       id="text2166"
       inkscape:export-filename="/home/alex/projects/devel/b16analysis/icon.png"
       inkscape:export-xdpi="72"
       inkscape:export-ydpi="72" />
  </g>
</svg>
